<svg width="800" height="600" xmlns="http://www.w3.org/2000/svg">
 <!-- Created with Method Draw - http://github.com/duopixel/Method-Draw/ -->

 <g>
  <title>background</title>
  <rect fill="none" id="canvas_background" height="602" width="802" y="-1" x="-1"/>
  <g display="none" overflow="visible" y="0" x="0" height="100%" width="100%" id="canvasGrid">
   <rect fill="url(#gridpattern)" stroke-width="0" y="0" x="0" height="100%" width="100%"/>
  </g>
 </g>
 <g>
  <title>Layer 1</title>
  <metadata>Created by potrace 1.16, written by Peter Selinger 2001-2019</metadata>
  <g stroke="null" id="svg_6">
   <g id="svg_4" fill="#000000" transform="translate(0,200) scale(0.10000000149011612,-0.10000000149011612) ">
    <path stroke="null" fill="#000000" id="svg_5" d="m5626.75273,1027.7628c0,-338.88468 -2.82404,-350.18084 -93.19329,-516.79914c-214.62697,-392.54142 -245.69139,-471.61452 -242.86736,-655.17705c0,-158.14618 19.76827,-211.80293 160.97022,-494.20683c121.43368,-240.04332 163.79426,-361.47699 177.91446,-488.55875c11.29616,-104.48944 8.47212,-158.14618 -8.47212,-141.20195c-163.79426,177.91446 -234.39524,299.34814 -234.39524,409.48566c0,121.43368 -129.90579,545.03953 -220.27504,725.77803l-53.65674,98.84137l-256.98755,-254.16351l-256.98755,-254.16351l-107.31348,25.41635c-310.64429,70.60098 -855.68382,0 -1152.20792,-149.67407l-132.72983,-67.77694l-285.22794,144.02599c-310.64429,155.32215 -508.32702,211.80293 -728.60207,211.80293c-172.26638,0 -392.54142,-53.65674 -409.48566,-96.01733c-19.76827,-53.65674 67.77694,-432.07797 129.90579,-556.33569c81.89713,-155.32215 240.04332,-324.76449 386.89335,-412.3097c101.6654,-59.30482 121.43368,-84.72117 107.31348,-132.72983c-36.71251,-127.08176 -70.60098,-429.25393 -56.48078,-491.38279c11.29616,-50.8327 -8.47212,-93.19329 -101.6654,-183.56254c-118.60964,-118.60964 -307.82025,-378.42123 -307.82025,-423.60585c0,-11.29616 62.12886,50.8327 138.37791,141.20195c73.42501,90.36925 169.44234,194.85869 208.97889,231.5712c70.60098,64.9529 76.24905,64.9529 90.36925,14.1202c11.29616,-28.24039 42.36059,-115.7856 70.60098,-192.03465c53.65674,-132.72983 53.65674,-138.37791 2.82404,-240.04332c-62.12886,-121.43368 -127.08176,-381.24527 -107.31348,-432.07797c5.64808,-19.76827 33.88847,39.53655 59.30482,132.72983c28.24039,93.19329 67.77694,203.33081 90.36925,245.69139l39.53655,73.42501l186.38658,-186.38658l186.38658,-186.38658l-16.94423,-146.85003c-25.41635,-231.5712 16.94423,-288.05198 53.65674,-67.77694c14.1202,101.6654 42.36059,180.7385 56.48078,177.91446c16.94423,-2.82404 110.13752,-39.53655 208.97889,-81.89713c285.22794,-115.7856 474.43855,-135.55387 1011.00597,-101.6654c505.50298,31.06443 643.8809,62.12886 889.57229,206.15485l144.02599,87.54521l152.49811,-76.24905c96.01733,-50.8327 211.80293,-81.89713 330.41256,-90.36925c155.32215,-14.1202 194.85869,-5.64808 268.28371,45.18462c192.03465,138.37791 228.74716,324.76449 144.02599,768.13861c-62.12886,316.29237 -62.12886,333.2366 -14.1202,491.38279c25.41635,93.19329 90.36925,251.33947 144.02599,358.65295c56.48078,110.13752 107.31348,265.45967 118.60964,361.47699c45.18462,324.76449 -42.36059,697.53764 -194.85869,838.73959l-67.77694,62.12886l0,-288.05198c-2.82404,-423.60585 -28.24039,-440.55009 -192.03465,-124.25772c-166.6183,321.94045 -169.44234,412.3097 -33.88847,799.20304c110.13752,313.46833 127.08176,539.39145 53.65674,711.65783c-53.65674,129.90579 -290.87602,513.9751 -316.29237,513.9751c-11.29616,0 -19.76827,-155.32215 -19.76827,-344.53276zm-432.07797,-1423.31566c81.89713,-211.80293 149.67407,-485.73471 124.25772,-511.15106c-8.47212,-8.47212 -48.00866,5.64808 -90.36925,31.06443c-141.20195,96.01733 -104.48944,14.1202 70.60098,-141.20195c152.49811,-138.37791 285.22794,-324.76449 285.22794,-401.01354c0,-14.1202 -50.8327,-104.48944 -112.96156,-197.68273c-110.13752,-175.09042 -177.91446,-347.3568 -211.80293,-547.86357l-16.94423,-107.31348l-76.24905,70.60098c-42.36059,39.53655 -146.85003,118.60964 -231.5712,177.91446l-155.32215,101.6654l93.19329,19.76827c96.01733,19.76827 203.33081,96.01733 203.33081,146.85003c0,16.94423 -25.41635,5.64808 -59.30482,-25.41635c-45.18462,-42.36059 -101.6654,-53.65674 -245.69139,-53.65674l-183.56254,0l-33.88847,141.20195c-16.94423,79.07309 -50.8327,169.44234 -70.60098,203.33081c-33.88847,53.65674 -33.88847,76.24905 8.47212,166.6183c33.88847,67.77694 42.36059,112.96156 22.59231,132.72983c-36.71251,36.71251 -319.11641,0 -386.89335,-50.8327c-50.8327,-36.71251 -50.8327,-39.53655 0,-96.01733c31.06443,-33.88847 104.48944,-73.42501 163.79426,-93.19329c129.90579,-39.53655 192.03465,-135.55387 192.03465,-304.99621c0,-98.84137 -11.29616,-121.43368 -90.36925,-169.44234c-152.49811,-90.36925 -304.99621,-98.84137 -463.1424,-25.41635c-76.24905,36.71251 -149.67407,70.60098 -166.6183,76.24905c-14.1202,8.47212 -5.64808,-14.1202 25.41635,-45.18462c112.96156,-129.90579 344.53276,-172.26638 567.63184,-104.48944c45.18462,14.1202 90.36925,-25.41635 225.92312,-189.21061c93.19329,-112.96156 276.75582,-324.76449 406.66162,-468.79048c225.92312,-248.51543 234.39524,-262.63563 183.56254,-304.99621c-127.08176,-98.84137 -350.18084,-189.21061 -556.33569,-225.92312c-313.46833,-56.48078 -954.52519,-62.12886 -1149.38388,-14.1202c-175.09042,45.18462 -437.72605,152.49811 -460.31836,192.03465c-33.88847,53.65674 115.7856,316.29237 217.451,381.24527c121.43368,79.07309 132.72983,115.7856 19.76827,76.24905c-104.48944,-36.71251 -186.38658,-124.25772 -265.45967,-290.87602l-64.9529,-135.55387l-129.90579,127.08176c-203.33081,194.85869 -208.97889,220.27504 -84.72117,344.53276c90.36925,93.19329 217.451,163.79426 443.37413,256.98755c53.65674,19.76827 53.65674,22.59231 -8.47212,31.06443c-87.54521,16.94423 -341.70872,-104.48944 -480.08663,-228.74716l-112.96156,-104.48944l-48.00866,141.20195c-25.41635,79.07309 -42.36059,172.26638 -36.71251,206.15485c14.1202,93.19329 279.57986,217.451 519.62318,240.04332c158.14618,14.1202 177.91446,22.59231 121.43368,42.36059c-101.6654,39.53655 -319.11641,5.64808 -497.03087,-76.24905c-84.72117,-39.53655 -160.97022,-70.60098 -166.6183,-70.60098c-22.59231,0 -5.64808,273.93178 25.41635,395.36546c25.41635,93.19329 48.00866,124.25772 81.89713,118.60964c25.41635,-2.82404 96.01733,25.41635 155.32215,62.12886c324.76449,211.80293 321.94045,228.74716 -76.24905,338.88468c-316.29237,87.54521 -762.49053,457.49432 -762.49053,632.58474c0,79.07309 471.61452,87.54521 703.18571,14.1202c87.54521,-25.41635 271.10775,-107.31348 409.48566,-177.91446l248.51543,-127.08176l189.21061,93.19329c268.28371,132.72983 624.11262,192.03465 923.46076,152.49811c124.25772,-16.94423 302.17217,-56.48078 395.36546,-87.54521c90.36925,-33.88847 175.09042,-59.30482 189.21061,-59.30482c56.48078,0 -48.00866,84.72117 -141.20195,115.7856l-98.84137,31.06443l192.03465,194.85869c107.31348,107.31348 206.15485,192.03465 223.09908,186.38658c14.1202,-5.64808 62.12886,-98.84137 104.48944,-206.15485zm-2790.15055,-776.61073c90.36925,-42.36059 214.62697,-87.54521 273.93178,-96.01733c59.30482,-11.29616 110.13752,-28.24039 110.13752,-39.53655c0,-11.29616 -53.65674,-56.48078 -115.7856,-96.01733l-118.60964,-79.07309l-129.90579,64.9529c-158.14618,76.24905 -344.53276,259.81159 -423.60585,415.13374c-33.88847,62.12886 -59.30482,121.43368 -59.30482,129.90579c0,8.47212 67.77694,-36.71251 149.67407,-101.6654c79.07309,-64.9529 220.27504,-152.49811 313.46833,-197.68273zm2205.57447,-731.42611c39.53655,-14.1202 175.09042,-107.31348 299.34814,-203.33081c124.25772,-98.84137 307.82025,-234.39524 403.83758,-304.99621c98.84137,-70.60098 206.15485,-149.67407 242.86736,-175.09042l64.9529,-48.00866l-73.42501,-146.85003c-42.36059,-79.07309 -76.24905,-160.97022 -76.24905,-183.56254c0,-22.59231 -11.29616,-39.53655 -25.41635,-39.53655c-28.24039,0 -796.379,833.09151 -903.69249,979.94154c-36.71251,48.00866 -56.48078,101.6654 -48.00866,118.60964c25.41635,36.71251 22.59231,36.71251 115.7856,2.82404z"/>
   </g>
  </g>
  <ellipse ry="9" rx="9.5" id="svg_8" cy="296.5" cx="476" stroke-width="1.5" stroke="#000" fill="#000000"/>
  <ellipse ry="11" rx="12" id="svg_9" cy="321.5" cx="352.5" stroke-width="1.5" stroke="#000" fill="#000000"/>
 </g>
</svg>